<svg xmlns="http://www.w3.org/2000/svg" width="22" height="20" viewBox="0 0 21 20" stroke-width="0.5" stroke="currentColor" fill="currentColor"><path fill-rule="evenodd" clip-rule="evenodd" d="M20.4076 2.2075C20.0431 3.28746 19.4227 4.30197 18.6209 5.12467L15.8743 7.93003L16.4831 10.0181C16.8983 9.78269 17.4254 9.82724 17.7774 10.1863C18.2031 10.6208 18.2031 11.3272 17.7783 11.7608L17.172 12.3808L17.5471 13.6689C17.9569 13.4571 18.4654 13.5117 18.8076 13.8607C19.2325 14.2953 19.2334 15.0016 18.8085 15.4352L18.2334 16.0225L18.6431 17.4288C18.6814 17.5597 18.6467 17.7006 18.5525 17.797L17.0111 19.3705C16.9276 19.4569 16.8067 19.4951 16.6894 19.4733C16.6165 19.4596 16.5498 19.4233 16.4983 19.3705C16.4671 19.3396 16.4423 19.3024 16.4236 19.2615L12.7827 11.0872L10.5854 13.3317C10.5694 13.3489 10.5507 13.3635 10.532 13.3762L8.93026 14.4834L9.91248 18.4897C9.94359 18.616 9.90715 18.7497 9.81737 18.8424L8.78981 19.8914C8.71426 19.9687 8.60937 20.0078 8.5027 19.9987C8.41737 19.9914 8.33648 19.9533 8.27604 19.8914C8.26181 19.8769 8.24937 19.8614 8.23781 19.8442L5.90537 16.5106C5.48937 16.6488 5.00759 16.5525 4.67781 16.2161C4.67781 16.2152 4.67692 16.2152 4.67692 16.2143C4.34981 15.8807 4.25292 15.3925 4.38981 14.9625L1.12403 12.579C1.10803 12.5671 1.09203 12.5535 1.0787 12.5399C1.01826 12.4781 0.980924 12.3962 0.972924 12.3081C0.964035 12.1999 1.00315 12.0917 1.0787 12.0144L2.10537 10.9654C2.19603 10.8736 2.3267 10.8363 2.45026 10.8681L6.37381 11.8717L7.45648 10.2354C7.46981 10.2163 7.48404 10.1981 7.50004 10.1818L9.69826 7.93639L1.6947 4.21834C1.6547 4.19925 1.61826 4.17289 1.58803 4.14198C1.53648 4.08925 1.50092 4.02107 1.48759 3.94562C1.46626 3.82563 1.50359 3.70381 1.58803 3.61745L3.12848 2.04387C3.2227 1.94751 3.36137 1.91205 3.48937 1.95114L4.86626 2.36931L5.44137 1.78206C5.86626 1.34844 6.55781 1.34935 6.9827 1.78297C7.32492 2.13296 7.37826 2.65203 7.17026 3.0702L8.43159 3.45382L9.0387 2.83384C9.46359 2.40022 10.1551 2.40113 10.58 2.83475C10.932 3.19474 10.9756 3.73381 10.7445 4.15743L12.7898 4.77923L15.5356 1.97387C16.364 1.11845 17.3943 0.463923 18.5125 0.0812086C19.1987 -0.154238 19.9623 0.135752 20.3294 0.776639C20.564 1.23117 20.5889 1.74751 20.4076 2.2075ZM17.2645 11.2363C17.4058 11.0917 17.4058 10.8563 17.2645 10.7108C17.1223 10.5663 16.892 10.5663 16.7507 10.7108L16.7 10.7618L16.9356 11.5717L17.2645 11.2363ZM18.2938 14.9098C18.436 14.7652 18.4351 14.5307 18.2938 14.3853C18.1516 14.2407 17.9214 14.2407 17.78 14.3853L17.7463 14.3507L17.9978 15.2134L18.2938 14.9098ZM16.868 18.4669L17.8858 17.4279L15.2903 8.52637L13.3311 10.5272L16.868 18.4669ZM8.57915 19.0569L9.15781 18.466L8.28937 14.9252L6.53648 16.137L8.57915 19.0569ZM2.47337 11.639L1.89559 12.2299L4.75426 14.3171L5.94004 12.5262L2.47337 11.639ZM6.46892 2.3084C6.32759 2.16296 6.09648 2.16296 5.95515 2.3075L5.65826 2.61021L6.50359 2.86748L6.46892 2.83293C6.61115 2.68839 6.61026 2.45295 6.46892 2.3084ZM10.0663 3.35928C9.92492 3.21474 9.69381 3.21474 9.55248 3.35928L9.22448 3.69472L10.0165 3.93562L10.0663 3.88471C10.2085 3.74017 10.2076 3.50382 10.0663 3.35928ZM3.49026 2.72475L2.47248 3.76381L10.2467 7.37641L10.6458 6.96915L12.2049 5.37557L3.49026 2.72475ZM19.6947 1.13572C19.5107 0.815729 19.1071 0.66028 18.7454 0.784821C17.7329 1.13117 16.8014 1.72388 16.0511 2.4984L8.03959 10.6818L5.15781 15.0334C5.00315 15.2425 5.02181 15.518 5.1907 15.6907C5.35959 15.8634 5.62981 15.8825 5.82004 15.7361L10.0956 12.7817L18.1063 4.60014C18.8307 3.85653 19.3916 2.93929 19.7276 1.9466C19.836 1.67206 19.8209 1.38207 19.6947 1.13572ZM18.356 3.79199L17.7071 3.45837L18.0583 2.74294C18.0849 2.68748 18.0751 2.62021 18.0316 2.57658C17.9889 2.53294 17.9214 2.52385 17.8663 2.55476L17.164 2.90838L16.8423 2.24204L17.5311 1.8966C17.8547 1.71479 18.2671 1.77297 18.5418 2.04841C18.7969 2.32204 18.876 2.73203 18.708 3.07474L18.356 3.79199Z"></path></svg>