<svg xmlns="http://www.w3.org/2000/svg" width="33" height="20" viewBox="0 0 33 20" stroke-width="0.7" stroke="currentColor" fill="currentColor"><g clip-path="url(#clip0)"><path fill-rule="evenodd" clip-rule="evenodd" d="M31.5461 10.3575L26.6403 15.4642C26.9128 15.5658 27.2195 15.6 27.5936 15.6C27.8661 15.6 28.1053 15.8383 28.1053 16.1108C28.1053 16.3833 27.8661 16.6217 27.5936 16.6217C26.0945 16.6217 25.3453 16.0083 24.6636 15.4983C24.0161 14.9875 23.4711 14.5792 22.347 14.5792C21.1886 14.5792 20.6436 15.0217 20.0303 15.4983C19.3486 16.0083 18.5995 16.6217 17.1003 16.6217C15.6011 16.6217 14.8511 16.0083 14.1703 15.4983C13.5228 14.9875 12.9778 14.5792 11.8536 14.5792C10.6945 14.5792 10.1495 15.0217 9.53613 15.4983C8.95697 15.9067 8.34363 16.4175 7.2878 16.5533C7.21947 16.5875 7.15113 16.6217 7.08363 16.6217C6.98113 16.6217 6.9128 16.6217 6.8103 16.6217C6.7428 16.6217 6.67447 16.6217 6.60613 16.6217C5.10697 16.6217 4.3578 16.0083 3.67613 15.4983C3.02863 14.9875 2.48363 14.5792 1.35947 14.5792C1.08697 14.5792 0.848633 14.34 0.848633 14.0683C0.848633 13.7958 1.08697 13.5575 1.35947 13.5575C1.9728 13.5575 2.48363 13.66 2.8928 13.83C2.07447 12.0592 2.10863 10.085 2.10863 9.9825C2.10863 9.67667 2.3478 9.4725 2.6203 9.4725H4.11947L7.0153 4.60417C7.1178 4.4675 7.2878 4.36584 7.4578 4.36584H9.50197V0.927505C9.50197 0.655005 9.74113 0.416672 10.0136 0.416672H12.5686C12.7386 0.416672 12.9095 0.518338 13.012 0.688338L14.9195 4.29751C14.9536 4.33167 14.9536 4.36584 14.9536 4.40001H20.0645C20.2003 4.40001 20.337 4.4675 20.4395 4.57L24.732 9.50667H31.1036C31.3078 9.50667 31.512 9.6425 31.6486 9.8125C31.7161 9.9825 31.6828 10.2217 31.5461 10.3575ZM12.2278 1.47167H10.4903V1.84667H12.4328L12.2278 1.47167ZM12.9778 2.86751H10.5245V4.43334H13.7953L12.9778 2.86751ZM19.8261 5.42084H7.76447L6.6403 7.25917H21.427L19.8261 5.42084ZM22.3128 8.28084H6.06113L5.31197 9.50667H23.4028L22.3128 8.28084ZM3.09697 10.5275C3.1653 11.4467 3.4378 13.455 4.59613 14.6467C5.1753 15.2258 5.89113 15.5658 6.77697 15.6C7.76447 15.5658 8.2753 15.1575 8.8553 14.715C9.53613 14.2042 10.3203 13.5917 11.7853 13.5917C13.2845 13.5917 14.0336 14.2042 14.7153 14.715C15.3628 15.2258 15.9078 15.6342 17.032 15.6342C18.1903 15.6342 18.7353 15.1917 19.3486 14.715C20.0303 14.2042 20.7795 13.5917 22.2786 13.5917C23.7778 13.5917 24.5278 14.2042 25.2086 14.715C25.3453 14.8167 25.4811 14.9192 25.6178 15.0217L29.877 10.5275H3.09697ZM1.35947 16.5192C2.85863 16.5192 3.6078 17.1325 4.28947 17.6433C4.93697 18.1533 5.48197 18.5617 6.60613 18.5617C7.76447 18.5617 8.3103 18.1192 8.9228 17.6433C9.60447 17.1325 10.3878 16.5192 11.8536 16.5192C13.352 16.5192 14.102 17.1325 14.7836 17.6433C15.4303 18.1533 15.9761 18.5617 17.1003 18.5617C18.2586 18.5617 18.8036 18.1192 19.417 17.6433C20.0986 17.1325 20.8478 16.5192 22.347 16.5192C23.8461 16.5192 24.5953 17.1325 25.277 17.6433C25.9245 18.1533 26.4695 18.5617 27.5936 18.5617C27.8661 18.5617 28.1053 18.8008 28.1053 19.0725C28.1053 19.345 27.8661 19.5833 27.5936 19.5833C26.0945 19.5833 25.3453 18.9708 24.6636 18.46C24.0161 17.9492 23.4711 17.5408 22.347 17.5408C21.1886 17.5408 20.6436 17.9833 20.0303 18.46C19.3486 18.9708 18.5995 19.5833 17.1003 19.5833C15.6011 19.5833 14.8511 18.9708 14.1703 18.46C13.5228 17.9492 12.9778 17.5408 11.8536 17.5408C10.6945 17.5408 10.1495 17.9833 9.53613 18.46C8.8553 18.9708 8.07113 19.5833 6.60613 19.5833C5.14113 19.5833 4.3578 19.0042 3.67613 18.46C3.02863 17.9492 2.48363 17.5408 1.35947 17.5408C1.08697 17.5408 0.848633 17.3025 0.848633 17.03C0.848633 16.7575 1.08697 16.5192 1.35947 16.5192Z"></path></g><defs><clipPath id="clip0"><rect width="31.6667" height="20" transform="translate(0.431641)"></rect></clipPath></defs></svg>